<svg width="24" height="24" viewBox="0 0 24 24" fill="none" xmlns="http://www.w3.org/2000/svg">
<path d="M20.9999 12.4236V10.9996C20.9999 8.61269 20.0517 6.3235 18.3639 4.63567C16.6761 2.94785 14.3869 1.99963 11.9999 1.99963C9.61297 1.99963 7.32379 2.94785 5.63596 4.63567C3.94813 6.3235 2.99992 8.61269 2.99992 10.9996V12.4236C1.95108 12.8855 1.09272 13.6936 0.568542 14.7127C0.0443627 15.7318 -0.113819 16.9001 0.120478 18.0219C0.354774 19.1437 0.967327 20.151 1.85559 20.8751C2.74385 21.5992 3.85391 21.9962 4.99992 21.9996C5.53035 21.9996 6.03906 21.7889 6.41413 21.4138C6.78921 21.0388 6.99992 20.5301 6.99992 19.9996V13.9996C6.99992 13.4692 6.78921 12.9605 6.41413 12.5854C6.03906 12.2103 5.53035 11.9996 4.99992 11.9996V10.9996C4.99992 9.14312 5.73742 7.36264 7.05017 6.04989C8.36293 4.73713 10.1434 3.99963 11.9999 3.99963C13.8564 3.99963 15.6369 4.73713 16.9497 6.04989C18.2624 7.36264 18.9999 9.14312 18.9999 10.9996V11.9996C18.4695 11.9996 17.9608 12.2103 17.5857 12.5854C17.2106 12.9605 16.9999 13.4692 16.9999 13.9996V19.9996C16.9999 20.5301 17.2106 21.0388 17.5857 21.4138C17.9608 21.7889 18.4695 21.9996 18.9999 21.9996C20.1459 21.9962 21.256 21.5992 22.1442 20.8751C23.0325 20.151 23.6451 19.1437 23.8794 18.0219C24.1137 16.9001 23.9555 15.7318 23.4313 14.7127C22.9071 13.6936 22.0488 12.8855 20.9999 12.4236V12.4236ZM4.99992 19.9996C4.20427 19.9996 3.44121 19.6836 2.8786 19.121C2.31599 18.5583 1.99992 17.7953 1.99992 16.9996C1.99992 16.204 2.31599 15.4409 2.8786 14.8783C3.44121 14.3157 4.20427 13.9996 4.99992 13.9996V19.9996ZM18.9999 19.9996V13.9996C19.7956 13.9996 20.5586 14.3157 21.1212 14.8783C21.6838 15.4409 21.9999 16.204 21.9999 16.9996C21.9999 17.7953 21.6838 18.5583 21.1212 19.121C20.5586 19.6836 19.7956 19.9996 18.9999 19.9996Z" fill="#130025"/>
</svg>
