<svg width="40" height="41" viewBox="0 0 40 41" fill="none" xmlns="http://www.w3.org/2000/svg">
<circle cx="20" cy="20.7085" r="20" fill="#E5EDF9"/>
<path d="M22.268 26.7085V22.0645H23.8233L24.056 20.2592H22.268V19.1072C22.268 18.5845 22.4133 18.2278 23.1627 18.2278H24.1187V16.6132C23.6559 16.5641 23.1907 16.5402 22.7253 16.5418C21.3473 16.5418 20.404 17.3832 20.404 18.9285V20.2592H18.8453V22.0645H20.404V26.7085H14.6667C14.4899 26.7085 14.3203 26.6383 14.1953 26.5132C14.0702 26.3882 14 26.2186 14 26.0418V15.3752C14 15.1984 14.0702 15.0288 14.1953 14.9038C14.3203 14.7787 14.4899 14.7085 14.6667 14.7085H25.3333C25.5101 14.7085 25.6797 14.7787 25.8047 14.9038C25.9298 15.0288 26 15.1984 26 15.3752V26.0418C26 26.2186 25.9298 26.3882 25.8047 26.5132C25.6797 26.6383 25.5101 26.7085 25.3333 26.7085H22.268Z" fill="#0067FF"/>
</svg>
