<svg width="40" height="41" viewBox="0 0 40 41" fill="none" xmlns="http://www.w3.org/2000/svg">
<circle cx="20" cy="20.7085" r="20" fill="#E5EDF9"/>
<path d="M20 14.0417C21.8113 14.0417 22.0373 14.0484 22.748 14.0817C23.458 14.1151 23.9413 14.2264 24.3667 14.3917C24.8067 14.5611 25.1773 14.7904 25.548 15.1604C25.887 15.4937 26.1493 15.8968 26.3167 16.3417C26.4813 16.7664 26.5933 17.2504 26.6267 17.9604C26.658 18.6711 26.6667 18.8971 26.6667 20.7084C26.6667 22.5197 26.66 22.7457 26.6267 23.4564C26.5933 24.1664 26.4813 24.6497 26.3167 25.0751C26.1498 25.5203 25.8874 25.9235 25.548 26.2564C25.2146 26.5953 24.8115 26.8576 24.3667 27.0251C23.942 27.1897 23.458 27.3017 22.748 27.3351C22.0373 27.3664 21.8113 27.3751 20 27.3751C18.1887 27.3751 17.9627 27.3684 17.252 27.3351C16.542 27.3017 16.0587 27.1897 15.6333 27.0251C15.1882 26.8581 14.785 26.5957 14.452 26.2564C14.1129 25.9232 13.8506 25.5201 13.6833 25.0751C13.518 24.6504 13.4067 24.1664 13.3733 23.4564C13.342 22.7457 13.3333 22.5197 13.3333 20.7084C13.3333 18.8971 13.34 18.6711 13.3733 17.9604C13.4067 17.2497 13.518 16.7671 13.6833 16.3417C13.8502 15.8965 14.1125 15.4933 14.452 15.1604C14.7851 14.8212 15.1883 14.5589 15.6333 14.3917C16.0587 14.2264 16.5413 14.1151 17.252 14.0817C17.9627 14.0504 18.1887 14.0417 20 14.0417ZM20 17.3751C19.1159 17.3751 18.2681 17.7263 17.643 18.3514C17.0179 18.9765 16.6667 19.8244 16.6667 20.7084C16.6667 21.5925 17.0179 22.4403 17.643 23.0654C18.2681 23.6906 19.1159 24.0417 20 24.0417C20.884 24.0417 21.7319 23.6906 22.357 23.0654C22.9821 22.4403 23.3333 21.5925 23.3333 20.7084C23.3333 19.8244 22.9821 18.9765 22.357 18.3514C21.7319 17.7263 20.884 17.3751 20 17.3751ZM24.3333 17.2084C24.3333 16.9874 24.2455 16.7754 24.0893 16.6192C23.933 16.4629 23.721 16.3751 23.5 16.3751C23.279 16.3751 23.067 16.4629 22.9107 16.6192C22.7545 16.7754 22.6667 16.9874 22.6667 17.2084C22.6667 17.4294 22.7545 17.6414 22.9107 17.7977C23.067 17.954 23.279 18.0417 23.5 18.0417C23.721 18.0417 23.933 17.954 24.0893 17.7977C24.2455 17.6414 24.3333 17.4294 24.3333 17.2084ZM20 18.7084C20.5304 18.7084 21.0391 18.9191 21.4142 19.2942C21.7893 19.6693 22 20.178 22 20.7084C22 21.2388 21.7893 21.7476 21.4142 22.1226C21.0391 22.4977 20.5304 22.7084 20 22.7084C19.4696 22.7084 18.9609 22.4977 18.5858 22.1226C18.2107 21.7476 18 21.2388 18 20.7084C18 20.178 18.2107 19.6693 18.5858 19.2942C18.9609 18.9191 19.4696 18.7084 20 18.7084Z" fill="#0067FF"/>
</svg>
