<svg width="150" height="151" viewBox="0 0 150 151" fill="none" xmlns="http://www.w3.org/2000/svg">
<g clip-path="url(#clip0_82_12)">
<mask id="mask0_82_12" style="mask-type:luminance" maskUnits="userSpaceOnUse" x="0" y="64" width="150" height="23">
<path d="M0 64.2206H150V86.2794H0V64.2206Z" fill="white"/>
</mask>
<g mask="url(#mask0_82_12)">
<path d="M38.7412 73.8C38.5794 73.8 38.4199 73.8059 38.2603 73.811C38.2345 73.8124 38.2091 73.8184 38.1853 73.8287C38.1431 73.843 38.1051 73.8677 38.0748 73.9004C38.0445 73.9332 38.0229 73.973 38.0118 74.0162L37.328 76.4051C37.0331 77.4323 37.1427 78.3809 37.6383 79.0772C38.0927 79.7213 38.8486 80.0993 39.7662 80.1434L43.4758 80.3684C43.5861 80.3743 43.6816 80.4272 43.7397 80.5147C43.7701 80.5614 43.7893 80.6145 43.7959 80.6699C43.8024 80.7252 43.796 80.7813 43.7772 80.8338C43.7474 80.9191 43.6935 80.9941 43.6222 81.0496C43.5509 81.1052 43.4651 81.139 43.375 81.147L39.5206 81.372C37.4265 81.4691 35.1736 83.1779 34.3831 85.2618L34.1052 85.997C34.0932 86.0275 34.0887 86.0604 34.092 86.093C34.0953 86.1256 34.1063 86.1569 34.1241 86.1844C34.142 86.2118 34.1661 86.2346 34.1945 86.2509C34.2229 86.2672 34.2548 86.2764 34.2875 86.2779H47.5625C47.6397 86.2782 47.7149 86.2532 47.7765 86.2068C47.8381 86.1603 47.8828 86.0949 47.9037 86.0206C48.1395 85.1731 48.2582 84.2973 48.2566 83.4176C48.2566 78.1088 44 73.8059 38.7471 73.8059" fill="#FBAD41"/>
<path d="M62.8816 78.1073H65.0801V84.1728H68.9169V86.1191H62.8816V78.1073ZM71.1904 82.136V82.1125C71.1904 79.811 73.0235 77.947 75.4706 77.947C77.9169 77.947 79.7272 79.7911 79.7272 82.0889V82.1125C79.7272 84.4132 77.8941 86.2779 75.4471 86.2779C73 86.2779 71.1904 84.436 71.1904 82.136ZM77.486 82.136V82.1125C77.486 80.9558 76.6603 79.9492 75.4471 79.9492C74.2338 79.9492 73.4434 80.9323 73.4434 82.0889V82.1125C73.4434 83.2683 74.2684 84.2757 75.4706 84.2757C76.672 84.2757 77.486 83.2919 77.486 82.136ZM82.4162 82.6051V78.1103H84.6463V82.5625C84.6463 83.7183 85.222 84.2661 86.1059 84.2661C86.989 84.2661 87.5654 83.7389 87.5654 82.6176V78.1073H89.7948V82.5478C89.7948 85.1353 88.3353 86.2654 86.0823 86.2654C83.8294 86.2654 82.4132 85.1088 82.4132 82.6036M93.1573 78.1095H96.2154C99.0448 78.1095 100.687 79.7573 100.687 82.0669V82.0904C100.687 84.3992 99.0213 86.1176 96.1691 86.1176H93.1573V78.1073V78.1095ZM96.247 84.1507C97.5618 84.1507 98.4309 83.4191 98.4309 82.1257V82.1022C98.4309 80.8198 97.5595 80.0764 96.247 80.0764H95.3522V84.1507H96.247ZM103.88 78.1073H110.219V80.0544H106.075V81.4147H109.822V83.2566H106.075V86.1191H103.88V78.1073ZM113.275 78.1073H115.473V84.1728H119.31V86.1191H113.275V78.1073ZM125.049 78.0507H127.165L130.54 86.1176H128.185L127.606 84.6867H124.548L123.983 86.1176H121.672L125.046 78.0507H125.049ZM126.975 82.9595L126.091 80.6823L125.196 82.9595H126.975ZM133.37 78.1095H137.117C138.328 78.1095 139.168 78.4316 139.697 78.9786C140.164 79.4353 140.399 80.0558 140.399 80.8433V80.8669C140.399 82.0904 139.752 82.9036 138.768 83.3257L140.659 86.1176H138.122L136.526 83.6911H135.565V86.1176H133.367V78.1073L133.37 78.1095ZM137.016 81.9551C137.763 81.9551 138.194 81.5897 138.194 81.0066V80.9838C138.194 80.3544 137.743 80.0353 137.004 80.0353H135.568V81.9588H137.018L137.016 81.9558V81.9551ZM143.568 78.1073H149.943V79.9956H145.743V81.2073H149.549V82.9603H145.743V84.2308H150.001V86.1191H143.568V78.1073ZM58.0706 83.075C57.7632 83.7779 57.1147 84.2757 56.2544 84.2757C55.0559 84.2757 54.2279 83.2683 54.2279 82.1125V82.0882C54.2279 80.9316 55.0323 79.9485 56.2316 79.9485C57.1353 79.9485 57.8243 80.5103 58.1169 81.2772H60.4309C60.0595 79.372 58.4037 77.9463 56.2522 77.9463C53.8081 77.9463 51.972 79.811 51.972 82.1117V82.1353C51.972 84.436 53.7816 86.2772 56.2294 86.2772C58.3198 86.2772 59.9559 84.9066 60.3875 83.0713H58.0676L58.0706 83.075Z" fill="white"/>
<path d="M32.9471 85.9691L33.1926 85.1051C33.4882 84.0779 33.3787 83.1294 32.8838 82.4331C32.4279 81.789 31.6728 81.411 30.7544 81.3669L13.3537 81.1419C13.2995 81.1409 13.2464 81.1271 13.1986 81.1017C13.1508 81.0763 13.1097 81.0399 13.0787 80.9956C13.0481 80.9489 13.0288 80.8959 13.0222 80.8405C13.0155 80.7851 13.0218 80.729 13.0404 80.6765C13.0706 80.5906 13.1249 80.5153 13.197 80.4597C13.269 80.4041 13.3556 80.3706 13.4463 80.3632L31.0096 80.1382C33.0948 80.0419 35.3478 78.3323 36.1382 76.2485L37.1397 73.6015C37.1805 73.4892 37.1906 73.3682 37.1691 73.2507C36.0279 68.0875 31.4632 64.2206 26.0059 64.2206C20.975 64.2206 16.7066 67.5015 15.175 72.0625C14.1438 71.2783 12.8524 70.917 11.564 71.0522C9.1522 71.2948 7.21103 73.2596 6.97132 75.6978C6.90926 76.3068 6.95405 76.9219 7.10367 77.5154C3.1625 77.6331 0.000732422 80.8963 0.000732422 84.9066C0.000732422 85.2691 0.0264677 85.6265 0.0786736 85.975C0.0890636 86.0567 0.128939 86.1319 0.190812 86.1863C0.252685 86.2407 0.332299 86.2707 0.414703 86.2706H32.55C32.6405 86.2691 32.7281 86.2383 32.7996 86.1829C32.8712 86.1275 32.9229 86.0505 32.9471 85.9632" fill="#F6821F"/>
</g>
</g>
<defs>
<clipPath id="clip0_82_12">
<rect width="150" height="22.0588" fill="white" transform="translate(0 64.2206)"/>
</clipPath>
</defs>
</svg>
