<svg width="17" height="17" viewBox="0 0 17 17" fill="none" xmlns="http://www.w3.org/2000/svg">
<g clip-path="url(#clip0_196_1398)">
<path d="M14.5 11.4467V13.804C14.5001 13.9728 14.4361 14.1353 14.3211 14.2588C14.206 14.3823 14.0484 14.4575 13.88 14.4693C13.5887 14.4893 13.3507 14.5 13.1667 14.5C7.27533 14.5 2.5 9.72467 2.5 3.83333C2.5 3.64933 2.51 3.41133 2.53067 3.12C2.54248 2.95163 2.61772 2.79401 2.7412 2.67894C2.86468 2.56387 3.02722 2.49992 3.196 2.5H5.55333C5.63603 2.49992 5.7158 2.53057 5.77715 2.58601C5.83851 2.64145 5.87706 2.71772 5.88533 2.8C5.90067 2.95333 5.91467 3.07533 5.928 3.168C6.06049 4.09262 6.332 4.99189 6.73333 5.83533C6.79667 5.96867 6.75533 6.128 6.63533 6.21333L5.19667 7.24133C6.0763 9.29097 7.7097 10.9244 9.75933 11.804L10.786 10.368C10.828 10.3093 10.8892 10.2673 10.959 10.2491C11.0288 10.2309 11.1028 10.2379 11.168 10.2687C12.0113 10.6692 12.9104 10.9401 13.8347 11.072C13.9273 11.0853 14.0493 11.1 14.2013 11.1147C14.2835 11.1231 14.3596 11.1617 14.4149 11.2231C14.4702 11.2844 14.5008 11.3641 14.5007 11.4467H14.5Z" fill="#F1F3F5"/>
</g>
<defs>
<clipPath id="clip0_196_1398">
<rect width="16" height="16" fill="white" transform="translate(0.5 0.5)"/>
</clipPath>
</defs>
</svg>
