<svg width="31" height="31" viewBox="0 0 31 31" fill="none" xmlns="http://www.w3.org/2000/svg">
<g clip-path="url(#clip0_285_827)">
<path fill-rule="evenodd" clip-rule="evenodd" d="M15.3281 0.140625C7.04688 0.140625 0.328125 6.85938 0.328125 15.1406C0.328125 23.4219 7.04688 30.1406 15.3281 30.1406C23.6094 30.1406 30.3281 23.4219 30.3281 15.1406C30.3281 10.3438 28.0703 6.07031 24.5625 3.32031C22.0156 1.32812 18.8125 0.140625 15.3281 0.140625ZM20.3281 9.50781C20.6797 9.50781 20.9609 9.78906 20.9609 10.1406V16.9219C20.9609 17.1094 20.875 17.2812 20.7422 17.3984C20.6328 17.4922 20.4844 17.5547 20.3281 17.5547C19.9766 17.5547 19.6875 17.2656 19.6875 16.9219V11.4531L10.7734 20.3672C10.6406 20.5 10.4609 20.5625 10.2812 20.5547C10.1328 20.5469 9.99219 20.4844 9.875 20.3672C9.625 20.1172 9.625 19.7188 9.875 19.4688L18.5625 10.7812H14.3984C14.0469 10.7812 13.7578 10.4922 13.7578 10.1406C13.7578 10.0156 13.7969 9.89844 13.8594 9.80469C13.9688 9.625 14.1719 9.50781 14.3984 9.50781H20.3281Z" fill="white"/>
</g>
<defs>
<clipPath id="clip0_285_827">
<rect width="31" height="31" fill="white"/>
</clipPath>
</defs>
</svg>
