<svg width="151" height="151" viewBox="0 0 151 151" fill="none" xmlns="http://www.w3.org/2000/svg">
<g clip-path="url(#clip0_82_21)">
<path d="M42.7342 62.9243C42.7342 64.7919 42.9834 66.2859 43.2326 67.4064C43.6063 68.5269 44.1047 69.6474 44.8522 71.0169C45.1013 71.3905 45.2259 71.764 45.2259 72.1375C45.2259 72.6355 44.9768 73.1335 44.2292 73.6315L41.1146 75.748C40.6163 75.997 40.2425 76.246 39.8688 76.246C39.3704 76.246 38.8721 75.997 38.3738 75.499C37.6263 74.752 37.1279 74.005 36.6296 73.1335C36.1312 72.262 35.6329 71.3905 35.1346 70.1454C31.2724 74.752 26.4136 76.993 20.4336 76.993C16.1977 76.993 12.9585 75.748 10.4668 73.3825C7.9751 71.017 6.72925 67.7799 6.72925 63.7958C6.72925 59.5628 8.22426 56.0767 11.2143 53.5867C14.2043 51.0966 18.3156 49.7271 23.4236 49.7271C25.1678 49.7271 26.912 49.8516 28.6562 50.1006C30.5249 50.3496 32.3937 50.7231 34.3871 51.2211V47.6106C34.3871 43.8755 33.6395 41.1365 32.0199 39.6424C30.4003 38.1484 27.7841 37.4014 23.9219 37.4014C22.1778 37.4014 20.4336 37.6504 18.5648 38.0239C16.696 38.5219 14.9518 39.0199 13.2077 39.7669C12.4601 40.016 11.8372 40.265 11.4635 40.3895C11.0897 40.3895 10.8405 40.514 10.716 40.514C9.96845 40.514 9.71928 40.016 9.71928 39.0199V36.5299C9.71928 35.7829 9.84387 35.1604 10.093 34.7869C10.3422 34.4134 10.8405 34.0399 11.4635 33.7909C13.2077 32.9193 15.3256 32.1723 17.6927 31.5498C20.1844 30.9273 22.6761 30.5538 25.417 30.5538C31.397 30.5538 35.6329 31.9233 38.4984 34.5379C41.2392 37.2769 42.6096 41.261 42.6096 46.8636L42.7342 62.9243ZM22.5515 70.5189C24.1711 70.5189 25.9153 70.2699 27.6595 69.6474C29.4037 69.0249 31.0233 67.9044 32.3937 66.4104C33.1412 65.4144 33.7641 64.4183 34.1379 63.1733C34.3871 61.9283 34.6362 60.5588 34.6362 58.8158V56.6992C33.1412 56.3257 31.6462 56.0767 30.0266 55.8277C28.407 55.5787 26.912 55.5787 25.2924 55.5787C21.9286 55.5787 19.5615 56.2012 17.8173 57.5707C16.1977 58.9403 15.3256 60.8078 15.3256 63.2978C15.3256 65.6634 15.9485 67.4064 17.1944 68.5269C18.4402 70.0209 20.1844 70.5189 22.5515 70.5189ZM62.5432 75.997C61.6711 75.997 61.0482 75.8725 60.6744 75.499C60.3007 75.25 59.9269 74.503 59.6777 73.507L47.9668 34.9114C47.7176 33.9154 47.4684 33.2928 47.4684 32.9193C47.4684 32.1723 47.8422 31.6743 48.7143 31.6743H53.5731C54.5698 31.6743 55.1927 31.7988 55.5665 32.1723C55.9402 32.4213 56.314 33.1683 56.5631 34.1644L64.9103 67.1574L72.6346 34.1644C72.8837 33.1683 73.1329 32.5458 73.6312 32.1723C74.005 31.9233 74.7525 31.6743 75.6246 31.6743H79.6113C80.608 31.6743 81.2309 31.7988 81.6047 32.1723C81.9784 32.4213 82.3522 33.1683 82.6013 34.1644L90.4502 67.5309L99.0465 34.1644C99.2957 33.1683 99.6694 32.5458 100.043 32.1723C100.417 31.9233 101.04 31.6743 102.037 31.6743H106.646C107.394 31.6743 107.892 32.0478 107.892 32.9193C107.892 33.1683 107.892 33.4173 107.767 33.6664C107.767 33.9154 107.643 34.4134 107.394 34.9114L95.309 73.507C95.0598 74.503 94.6861 75.1255 94.3123 75.499C93.9386 75.748 93.3156 75.997 92.4435 75.997H88.2076C87.211 75.997 86.5881 75.8725 86.2143 75.499C85.8405 75.1255 85.4668 74.503 85.2176 73.507L77.4934 41.3855L69.7691 73.507C69.5199 74.503 69.2708 75.1255 68.7724 75.499C68.3987 75.8725 67.6512 75.997 66.7791 75.997H62.5432ZM126.704 77.2421C124.088 77.2421 121.472 76.993 118.98 76.3705C116.488 75.748 114.495 75.1255 113.249 74.3785C112.502 73.8805 111.879 73.3825 111.754 73.009C111.63 72.6355 111.38 72.013 111.38 71.6395V69.1494C111.38 68.1534 111.754 67.6554 112.502 67.6554C112.751 67.6554 113.125 67.6554 113.374 67.7799C113.623 67.9044 114.121 68.0289 114.62 68.2779C116.364 69.0249 118.108 69.6474 120.101 70.0209C122.095 70.3944 124.088 70.6434 126.081 70.6434C129.196 70.6434 131.688 70.1454 133.307 69.0249C135.051 67.9044 135.924 66.2859 135.924 64.2938C135.924 62.9243 135.425 61.8038 134.553 60.8078C133.681 59.8118 131.937 59.0648 129.57 58.1932L122.344 55.9522C118.731 54.8317 115.99 53.0887 114.37 50.8476C112.751 48.6066 111.879 46.2411 111.879 43.6265C111.879 41.51 112.377 39.6424 113.249 38.1484C114.121 36.6544 115.367 35.1604 116.862 34.0399C118.357 32.9193 120.101 32.0478 122.095 31.4253C124.088 30.8028 126.206 30.5538 128.324 30.5538C129.445 30.5538 130.566 30.5538 131.688 30.8028C132.809 30.9273 133.93 31.1763 134.927 31.3008C135.924 31.5498 136.92 31.7988 137.792 32.0478C138.664 32.2968 139.412 32.6703 139.91 32.9193C140.658 33.2928 141.156 33.6664 141.405 34.1644C141.654 34.5379 141.904 35.1604 141.904 35.7829V38.1484C141.904 39.1444 141.53 39.7669 140.782 39.7669C140.409 39.7669 139.786 39.5179 138.914 39.1444C136.048 37.8994 132.934 37.1524 129.321 37.1524C126.455 37.1524 124.213 37.6504 122.718 38.5219C121.223 39.3934 120.351 40.8875 120.351 43.004C120.351 44.3735 120.849 45.6185 121.846 46.4901C122.842 47.4861 124.711 48.3576 127.327 49.2291L134.429 51.4701C138.042 52.5907 140.658 54.2092 142.153 56.2012C143.648 58.1932 144.395 60.5588 144.395 63.1733C144.395 65.2899 143.897 67.2819 143.15 68.9004C142.277 70.6434 141.032 72.1375 139.537 73.258C138.042 74.503 136.173 75.3745 134.055 75.997C131.563 76.993 129.196 77.2421 126.704 77.2421Z" fill="white"/>
<path fill-rule="evenodd" clip-rule="evenodd" d="M136.173 101.52C119.728 113.597 95.8073 120.071 75.3754 120.071C46.5963 120.071 20.6827 109.488 1.12292 91.8088C-0.372096 90.4393 0.998336 88.5717 2.86711 89.5678C24.0465 101.893 50.0847 109.239 77.1196 109.239C95.309 109.239 115.367 105.504 133.806 97.6604C136.422 96.5399 138.789 99.5279 136.173 101.52Z" fill="#FF9900"/>
<path fill-rule="evenodd" clip-rule="evenodd" d="M142.9 93.8008C140.782 91.0618 129.071 92.5558 123.714 93.1783C122.095 93.4273 121.846 91.9333 123.341 90.9373C132.684 84.3387 148.133 86.2062 149.877 88.4472C151.621 90.6883 149.379 106.127 140.658 113.472C139.287 114.593 138.042 113.97 138.664 112.476C140.658 107.496 145.018 96.4154 142.9 93.8008Z" fill="#FF9900"/>
</g>
<defs>
<clipPath id="clip0_82_21">
<rect width="150" height="89.6414" fill="white" transform="translate(0.5 30.4293)"/>
</clipPath>
</defs>
</svg>
