<svg width="150" height="151" viewBox="0 0 150 151" fill="none" xmlns="http://www.w3.org/2000/svg">
<g clip-path="url(#clip0_82_28)">
<path d="M3.14297 92.5H10.4766V74.7571L0 66.8714V89.358C0 91.083 1.41742 92.5 3.14297 92.5Z" fill="#4285F4"/>
<path d="M35.5588 92.5H42.8924C44.6179 92.5 46.0353 91.083 46.0353 89.358V66.8714L35.5588 74.6955" fill="#34A853"/>
<path d="M35.5588 61.142V74.7571L46.0353 66.933V62.6821C46.0353 58.8009 41.5982 56.583 38.5168 58.9241" fill="#FBBC04"/>
<path d="M10.4766 74.7571V61.142L23.0485 70.5679L35.5587 61.142V74.7571L22.9868 84.1214" fill="#EA4335"/>
<path d="M0 62.6821V66.8714L10.4766 74.6955V61.1419L7.51849 58.9241C4.43714 56.6446 0 58.8625 0 62.6821Z" fill="#C5221F"/>
<path d="M89.6672 76.8518C89.6672 80.2402 88.6812 83.0125 86.6475 85.0455C84.3673 87.4482 81.3476 88.6803 77.65 88.6803C74.0756 88.6803 71.1175 87.4482 68.6524 84.9839C66.1874 82.5196 64.9548 79.5009 64.9548 75.866C64.9548 72.2928 66.1874 69.2125 68.6524 66.7482C71.1175 64.2839 74.1372 63.0518 77.65 63.0518C79.4371 63.0518 81.1627 63.3598 82.765 64.0375C84.3673 64.6535 85.6615 65.5777 86.7091 66.7482L84.4289 69.0277C83.6894 68.1035 82.7034 67.4259 81.5325 66.8714C80.3616 66.3785 79.0674 66.1321 77.7116 66.1321C75.0616 66.1321 72.7814 67.0562 70.9326 68.9044C69.0838 70.7527 68.221 73.0937 68.221 75.9277C68.221 78.7616 69.1454 81.041 70.9326 82.9509C72.7814 84.7991 75.0616 85.7232 77.7116 85.7232C80.1767 85.7232 82.1487 85.0455 83.8127 83.6901C85.415 82.3348 86.3394 80.425 86.5859 78.0223H77.65V75.0652H89.4823C89.6056 75.6196 89.6672 76.2357 89.6672 76.8518Z" fill="white"/>
<path d="M96.0764 88.0643H92.9334V71.3071H95.9532V73.6482H96.0764C96.5694 72.8473 97.309 72.1696 98.295 71.6152C99.281 71.0607 100.267 70.8143 101.253 70.8143C102.486 70.8143 103.595 71.1223 104.519 71.6768C105.444 72.2312 106.122 73.0321 106.553 74.0178C107.97 71.8616 109.881 70.8143 112.346 70.8143C114.256 70.8143 115.797 71.4303 116.845 72.6009C117.892 73.7714 118.447 75.4964 118.447 77.6527V88.1259H115.242V78.0839C115.242 76.4821 114.934 75.3732 114.38 74.6955C113.825 74.0178 112.839 73.6482 111.483 73.6482C110.251 73.6482 109.265 74.1411 108.463 75.1884C107.662 76.2357 107.231 77.4062 107.231 78.8232V88.0643H104.088V78.0839C104.088 76.4821 103.78 75.3732 103.225 74.6955C102.671 74.0178 101.684 73.6482 100.329 73.6482C99.0961 73.6482 98.1101 74.1411 97.309 75.1884C96.5078 76.2357 96.0764 77.4062 96.0764 78.8232V88.0643Z" fill="white"/>
<path d="M128.246 70.7526C130.588 70.7526 132.375 71.3687 133.73 72.6008C135.086 73.833 135.764 75.558 135.764 77.7142V88.0642H132.744V85.7232H132.621C131.327 87.633 129.601 88.6187 127.445 88.6187C125.596 88.6187 124.055 88.0642 122.823 86.9553C121.59 85.8464 120.974 84.491 120.974 82.8276C120.974 81.1026 121.652 79.7473 122.946 78.6999C124.24 77.6526 126.027 77.1598 128.184 77.1598C130.033 77.1598 131.574 77.5294 132.806 78.2071V77.4678C132.806 76.3589 132.375 75.4348 131.512 74.6955C130.649 73.9562 129.601 73.5249 128.492 73.5249C126.767 73.5249 125.349 74.2642 124.302 75.7428L121.528 74.0178C123.007 71.8616 125.288 70.7526 128.246 70.7526ZM124.178 82.9508C124.178 83.7517 124.548 84.4294 125.226 84.9839C125.904 85.5383 126.705 85.7848 127.691 85.7848C128.985 85.7848 130.218 85.2919 131.204 84.3062C132.251 83.3205 132.744 82.1499 132.744 80.8562C131.758 80.0553 130.403 79.6857 128.615 79.6857C127.321 79.6857 126.274 79.9937 125.411 80.6098C124.61 81.2874 124.178 82.0267 124.178 82.9508Z" fill="white"/>
<path d="M143.406 65.5776C143.406 66.1937 143.159 66.6865 142.728 67.1794C142.297 67.6107 141.742 67.8571 141.126 67.8571C140.509 67.8571 140.016 67.6107 139.523 67.1794C139.092 66.7482 138.846 66.1937 138.846 65.5776C138.846 64.9615 139.092 64.4687 139.523 63.9758C139.955 63.5446 140.509 63.2982 141.126 63.2982C141.742 63.2982 142.235 63.5446 142.728 63.9758C143.159 64.4071 143.406 64.9615 143.406 65.5776ZM142.728 71.3071V88.0642H139.585V71.3071H142.728Z" fill="white"/>
<path d="M150 63.6062V88.0642H146.857V63.6062H150Z" fill="white"/>
</g>
<defs>
<clipPath id="clip0_82_28">
<rect width="150" height="34.5" fill="white" transform="translate(0 58)"/>
</clipPath>
</defs>
</svg>
