<svg width="150" height="151" viewBox="0 0 150 151" fill="none" xmlns="http://www.w3.org/2000/svg">
<g clip-path="url(#clip0_82_44)">
<mask id="mask0_82_44" style="mask-type:luminance" maskUnits="userSpaceOnUse" x="0" y="0" width="150" height="151">
<path d="M0 0.25H150V150.25H0V0.25Z" fill="white"/>
</mask>
<g mask="url(#mask0_82_44)">
<path d="M119.741 51.3492C123.688 58.5522 125.935 66.8183 125.935 75.6111C125.935 94.2689 115.823 110.558 100.788 119.324L116.235 74.6635C119.12 67.4486 120.08 61.6796 120.08 56.5498C120.08 54.6879 119.958 52.96 119.741 51.3492ZM82.3322 51.8998C85.3768 51.7397 88.1203 51.4195 88.1203 51.4195C90.8453 51.0969 90.5239 47.0921 87.7977 47.2516C87.7977 47.2516 79.606 47.8945 74.3179 47.8945C69.3489 47.8945 60.9989 47.2516 60.9989 47.2516C58.2715 47.0921 57.9519 51.2582 60.678 51.4195C60.678 51.4195 63.2578 51.7397 65.9828 51.8998L73.8614 73.4885L62.7923 106.681L44.3769 51.8998C47.4239 51.7397 50.1644 51.4195 50.1644 51.4195C52.8876 51.0969 52.5661 47.0921 49.8411 47.2516C49.8411 47.2516 41.6513 47.8945 36.3626 47.8945C35.4138 47.8945 34.2953 47.8713 33.1078 47.8332C42.1507 34.1046 57.6935 25.0385 75.3626 25.0385C88.528 25.0385 100.516 30.0724 109.513 38.3165C109.295 38.3034 109.083 38.276 108.858 38.276C103.891 38.276 100.366 42.6034 100.366 47.2516C100.366 51.4195 102.77 54.9457 105.333 59.1129C107.257 62.4814 109.503 66.8082 109.503 73.0605C109.503 77.3885 107.838 82.4117 105.655 89.4094L100.609 106.264L82.3322 51.8998ZM75.3626 126.188C70.3983 126.188 65.6072 125.46 61.0751 124.127L76.2507 80.035L91.7947 122.624C91.8971 122.874 92.0227 123.104 92.1566 123.321C86.9001 125.171 81.2519 126.188 75.3626 126.188ZM24.7899 75.6111C24.7899 68.279 26.3626 61.3189 29.1691 55.0296L53.2935 121.126C36.4215 112.93 24.7899 95.629 24.7899 75.6111ZM75.3626 19.3629C44.3465 19.3629 19.1132 44.5957 19.1132 75.6111C19.1132 106.628 44.3465 131.864 75.3626 131.864C106.378 131.864 131.613 106.628 131.613 75.6111C131.613 44.5957 106.378 19.3629 75.3626 19.3629Z" fill="white"/>
</g>
</g>
<defs>
<clipPath id="clip0_82_44">
<rect width="150" height="150" fill="white" transform="translate(0 0.25)"/>
</clipPath>
</defs>
</svg>
