<svg width="17" height="17" viewBox="0 0 17 17" fill="none" xmlns="http://www.w3.org/2000/svg">
<g clip-path="url(#clip0_196_1401)">
<path d="M8.502 0.5H8.498C4.087 0.5 0.5 4.088 0.5 8.5C0.5 10.25 1.064 11.872 2.023 13.189L1.026 16.161L4.101 15.178C5.366 16.016 6.875 16.5 8.502 16.5C12.913 16.5 16.5 12.911 16.5 8.5C16.5 4.089 12.913 0.5 8.502 0.5ZM13.157 11.797C12.964 12.342 12.198 12.794 11.587 12.926C11.169 13.015 10.623 13.086 8.785 12.324C6.434 11.35 4.92 8.961 4.802 8.806C4.689 8.651 3.852 7.541 3.852 6.393C3.852 5.245 4.435 4.686 4.67 4.446C4.863 4.249 5.182 4.159 5.488 4.159C5.587 4.159 5.676 4.164 5.756 4.168C5.991 4.178 6.109 4.192 6.264 4.563C6.457 5.028 6.927 6.176 6.983 6.294C7.04 6.412 7.097 6.572 7.017 6.727C6.942 6.887 6.876 6.958 6.758 7.094C6.64 7.23 6.528 7.334 6.41 7.48C6.302 7.607 6.18 7.743 6.316 7.978C6.452 8.208 6.922 8.975 7.614 9.591C8.507 10.386 9.231 10.64 9.49 10.748C9.683 10.828 9.913 10.809 10.054 10.659C10.233 10.466 10.454 10.146 10.679 9.831C10.839 9.605 11.041 9.577 11.253 9.657C11.469 9.732 12.612 10.297 12.847 10.414C13.082 10.532 13.237 10.588 13.294 10.687C13.35 10.786 13.35 11.251 13.157 11.797Z" fill="#F1F3F5"/>
</g>
<defs>
<clipPath id="clip0_196_1401">
<rect width="16" height="16" fill="white" transform="translate(0.5 0.5)"/>
</clipPath>
</defs>
</svg>
